<?xml version="1.0" encoding="UTF-8"?>
<svg id="Layer_2" data-name="Layer 2" xmlns="http://www.w3.org/2000/svg" viewBox="0 0 661.59 149">
  <defs>
    <style>
      .cls-1 {
        fill: #d8ede3;
      }

      .cls-2 {
        fill: #113e5c;
      }
    </style>
  </defs>
  <g id="Layer_1-2" data-name="Layer 1">
    <g>
      <g>
        <path class="cls-1" d="M435.93,109.81l-13.82.25s.09-3.25.14-4.7l.51-14.15-.14-14.52-.94-25.66-21,59.01-12.58.66-.77-2.46-6.79-19.46-14.98-40.68.17,62.42c-4.55.62-8.13.61-12.77,0l-.35-57.38-.23-22.14,14.23-.27c2.35-.04,5.5.19,7.53,1.36l6.16,20.84,5.41,16.72,8.34,23.99,5.4-13.77,8.51-24.7,8.06-24.51,19.44.11.5,12.91-.09,16.44-.1,36.05.15,13.63Z"/>
        <path class="cls-1" d="M539.86,48.15c-2.83.26-5.91,4.8-7.09,7.02,9.04,8,7.74,21.7.62,27.83-12.17,10.45-24.89,4.91-32.04,6.94-2.86.81-4.08,4.64-3.46,6.84,2.39,8.49,19.96.07,36.81,6.18,6.19,2.25,9.84,8.97,9.75,14.44-.28,16.63-19.46,20.33-35.71,19.82-12.69-.4-27.48-7-24.86-19.48.96-4.56,3.76-7.71,8.57-8.88-6.75-4.25-7.74-11.95-3.4-17.75,1.46-1.96,3.28-3.59,5.34-5.14-6.86-6.76-10.18-14.93-7.31-24.46,5.87-9.66,16.72-14.57,28-13l10.84,2.77c1.42-8.55,8.42-15.02,18.03-14.27l2.31,10.57-6.39.58ZM526.93,113.12l-5.59-.18-16.64.13c-3.46-.87-9.12.78-9.48,4.4-.97,9.75,16.82,10.97,29.44,7.45,2.61-.73,5.43-3.12,6.98-5.54.66-1.04.07-3.59-.68-4.45-.65-.76-2.99-1.77-4.03-1.81ZM522.9,61.69c-3.78-3.7-8.75-3.39-13.26-2.88-5.65.64-10.17,5.22-10.17,10.43,0,5.65,3.34,9.56,8.84,11.23,7.32,2.22,15.54-.49,17.65-8.68.73-2.82-.82-7.92-3.06-10.1Z"/>
        <path class="cls-1" d="M622.11,48.92c15.49-.97,30.89,5.37,30.33,19.61l-.61,15.47c-.2,5.2-1.1,10.77,1.07,15.52,1.1,2.42,5.84,2.51,8.69,2.21l-.55,9.81c-9.63,2.21-19.03,1.38-21.59-7.38-5.91,9.23-21.19,10.67-30.21,6.5-7.94-3.68-10.58-12.76-7.66-20.58,1.54-4.14,3.77-7.15,7.84-9.11,11.54-5.56,20.72-4.14,29.23-8.18l-1.44-5.42c-.47-1.78-2.57-5.49-4.31-6.15-2.81-1.07-5.8-2.07-8.4-1.99-1.94.06-7.09,1.85-8.43,3.25-2.17,2.26-2.71,5.51-4.38,9.03l-11.73-5.87s1.4-3.11,2.16-4.36c4.42-7.27,10.95-11.79,19.99-12.35ZM638.09,84.73l-10.05,1.83c-4.37.79-8.89.99-12.1,4.21-1.52,1.52-2.51,4.71-1.99,6.64.39,1.47,2.43,3.72,4.21,4.2,8.1,2.16,19.33-2.4,19.55-7.67l.39-9.2Z"/>
        <path class="cls-1" d="M297.64,53.79c4.16,2.43,7.75,7.82,7.71,12.34l-.11,12.35-.85,13.27c-.18,2.86.26,7.07,2.58,8.91,1.85,1.47,4.69.97,7.68.65.12,3.6-.27,7.19-1.42,10.93-8.46,1.15-16.95-.46-21.33-7.77-9.05,10.4-29.68,11.68-36.53-.43-3.85-6.82-2.14-16.83,4.35-21.59s15.06-6.01,23.08-7.16l8.61-2.28c-.37-3.25-.64-6.63-2.38-8.95-5.06-6.78-17.56-7.45-21.81-.14-1.29,2.23-2.14,4.48-3.31,6.99l-11.15-5.73c7.34-18.47,28.31-21.04,44.89-11.38ZM291.19,83.87l-10.06,2.19c-7.19,1.22-15.74,5.19-14.5,10.38,1.67,7.02,15.14,6.39,19.66,2.89l4.13-3.2.77-12.26Z"/>
        <path class="cls-1" d="M199.83,98.73l17.36,1,16.33-.38,10.42-.43c.64,4.84.94,8.49.62,13.5-13.21.24-25.37-.29-38.22-.92l-19.98-.97c-1.13-9.65-1.14-18.49-.96-28.19l.41-22.87c.17-9.65-.51-18.79.3-28.23l14.12-.28-.36,12.66-.91,29.26.87,25.85Z"/>
        <path class="cls-1" d="M593.56,48.83l-1.41,12.97c-8.28-1.48-16.54.27-21.6,7.34-2.03,2.85-2.31,7.44-2.25,10.99l.34,20.01-.34,10.88-13.99-.19.15-41.09.4-18.78c4.08-1.23,7.52-1.34,11.7-.43l.77,9.76c2.81-3.65,5.29-7.36,8.74-10.32,5.69-1.7,10.48-1.97,17.49-1.14Z"/>
        <polygon class="cls-1" points="470.06 50.73 469.83 75.15 469.75 89.73 470.05 110.69 456.65 111.21 456.31 75.26 456.88 50.83 470.06 50.73"/>
        <path class="cls-1" d="M470.36,26.37c2.98,2.93,2.39,8.46.2,11.4-1.97,2.66-5.44,3.64-8.46,3.19-2.81-.42-6.27-2.46-7.25-5.84-.74-2.56-.2-6.95,1.68-8.92,3.35-3.51,10.18-3.41,13.83.17Z"/>
      </g>
      <g>
        <path class="cls-2" d="M107.58,134.35c-4.7.46-5.97-3.91-8.96-3.72s-6.03.1-8.19-2.39c-.86-1-2.46-2.86-3.76-2.83-2.73,1.01-2.6,4.19-1.6,6.37l7.32,15.96c-1.06,1.11-3.18,1.31-5.25,1.26l-6.61-.17-15.21-.17c-.44,0-1.29-.24-2.19-.59l5.97-13.87c.96-2.23,2-5.36,1.57-7.62-.33-1.76-3.24-1.18-3.97,0-3.75,6.05-10.07,3.53-11.46,4.56l-4.04,3.01c-4.07.62-8.05-.05-11.95-.73l-4.89,3.21c-.64.42-2.85-.25-2.8-.98l2.44-4.18,5.97-11.43,4.76-8.8c2.05-3.78,4.17-6.89,7.67-9.36,2.43-1.71,5.06-3.1,8.33-2.7l8.54,1.04c1.75.21,3.68-.13,4.34-2.01l2.8-7.86c.15-.43.98-1.35,1.41-1.32s1.21.89,1.37,1.32l2.87,7.88c.48,1.33,2.05,2.15,3.4,1.99l8.7-1.04c4.17-.5,8.29.94,11.12,4.02l4.25,4.62c2.67,4.03,4.5,8.3,6.72,12.54l7.41,14.17.58,1.25c.58,1.24-3.61.92-7.84-2.27l-8.79.86Z"/>
        <path class="cls-2" d="M97.33,18.32c4.79.46,5.17-4.12,10.32-3.63l6.23.59c1.97.19,3.51.1,4.9-1.36l3.72-1.4c.2-.08,1.09.03,1.29.11.3.12.21.92.05,1.23l-2.26,4.35-9.45,18.17c-2.36,4.53-5.33,8.75-9.56,11.55-3.83,2.54-8.42,1.73-12.75,1.39l-6.69-.52c-2.9,4.33-3.35,10.81-5.41,11.19-1.86.34-1.95-7.43-5.3-10.38-3.44-3.02-11.57,3.65-20.53-2.83-3.11-2.25-5.59-5.11-7.37-8.61l-9-17.69c-1.28-2.51-2.33-4.98-4.25-7.53,2.37-1.24,5.49.83,7.12,2.11,1.54,1.21,7.9-1.51,12.88-.05l5.13,3.41c8.23-1.67,9.5,4.51,12.49,5.12,3.35.68,1.79-5.08-.26-9.96L63.09.46l17.72-.26,6.12-.19c2.11-.06,4.14.09,5.5,1.04l-7.98,17.62c-.46,1.03.26,3.5,1.04,4.28.95.95,2.95.38,3.58-.62,1.8-2.88,4.68-4.35,8.25-4.01Z"/>
        <path class="cls-2" d="M49.39,68.67c3.13,3.91,9.45,3.14,10.51,5.67.82,1.97-7.14,2.2-10.74,5.58-.43,2.35-.35,5.01.19,7.41,1.65,7.37-1.56,15.05-8.35,18.7l-16.14,8.69-8.13,4.13-3.96,2.15c-.94-3,.46-4.61,2-6.63,1.93-2.55-1.59-8.08.33-13.26.61-1.64,2.88-3.63,3.23-5.31-1.57-9.21,6.35-9.95,5.11-13.27-1.63-4.36-16.07,4.76-22.96,6.57l-.26-17.36L0,64.69c-.06-1.89.3-3.85,1.12-4.93l15.89,7.34c2.3,1.06,5.35,1.25,6.65-1.61-.34-1.46-2.16-2.95-3.27-4.03-2.39-2.34-2.32-5.69-1.94-8.88l-3.68-5.03c-.13-3.88.32-7.9.73-11.86-1.15-2.26-3.69-4.19-2.77-7.67l5.9,3.09,10.48,5.55,11.22,5.74c3.58,1.83,6.57,4.99,8.24,8.58,3.26,7.03-.89,12.44.82,17.69Z"/>
        <path class="cls-2" d="M155.31,70.68l-.23,6.66-.13,11.79-9.69-3.98c-4.31-1.77-13.21-6.14-13.31-2.31-.09,3.36,6.61,4.14,5.24,12.94.39,1.62,2.42,3.56,3.12,5.15,2.17,4.92-1.69,10.88.48,13.52,1.54,1.88,2.96,4.24,1.71,6.44-2.71-1.84-5.11-2.95-7.68-4.22l-3.72-1.83-12.5-6.71c-3.44-1.85-6.72-3.87-9.16-6.78-2.73-3.25-4.26-7.01-3.66-11.31l1.04-7.45c.21-1.51-.4-3.33-2.05-3.93l-7.69-2.78c-.38-.14-1.17-.89-1.39-1.18-1.33-1.75,6.89-2.72,11.01-5.72l-.59-7.11c-.35-4.15-.89-8.52,1.49-12.24,1.96-3.05,5.11-5.31,8.27-7.15l16.95-9.83,7.25-3.65c.83-.42,2.2-.94,2.88-.64.27,2.92-1.75,5.24-2.97,7.3.26,4.13,1.21,8.1.49,12.21-.9,1.51-3.42,3.57-3.26,5.45.82,9.23-5.91,9.58-5.22,12.46.43,1.78,3.55,2.6,5.85,1.55l16.54-7.6c1.02,1.43,1.08,3.67,1.04,5.92l-.11,5.02Z"/>
      </g>
    </g>
  </g>
</svg>